<svg xmlns="http://www.w3.org/2000/svg" width="24.106" height="18.835" viewBox="6837 1039.082 24.106 18.835"><path d="M6837 1044.357v-.754c0-.624.506-1.13 1.13-1.13h16.95v-2.26c0-1.006 1.22-1.508 1.93-.799l3.766 3.767a1.13 1.13 0 0 1 0 1.598l-3.767 3.767c-.707.707-1.929.211-1.929-.8v-2.26h-16.95a1.13 1.13 0 0 1-1.13-1.13Zm22.977 7.156h-16.95v-2.26c0-1.003-1.218-1.51-1.93-.799l-3.766 3.767a1.13 1.13 0 0 0 0 1.598l3.767 3.767c.707.707 1.929.21 1.929-.8v-2.26h16.95a1.13 1.13 0 0 0 1.13-1.13v-.753a1.13 1.13 0 0 0-1.13-1.13Z" fill="#fff" fill-rule="evenodd" data-name="Icon awesome-exchange-alt"/></svg>