<svg xmlns="http://www.w3.org/2000/svg" width="12.862" height="12.862" viewBox="390 731.569 12.862 12.862"><path d="M398.205 736.226a3.816 3.816 0 0 1 0 5.4l-1.688 1.688a3.823 3.823 0 0 1-5.4 0 3.823 3.823 0 0 1 0-5.4l.932-.932a.402.402 0 0 1 .685.267c.017.445.097.892.244 1.324a.404.404 0 0 1-.095.417l-.329.33c-.704.703-.726 1.85-.029 2.56a1.81 1.81 0 0 0 2.57.013l1.689-1.688a1.808 1.808 0 0 0-.26-2.773.403.403 0 0 1-.174-.317 1 1 0 0 1 .293-.748l.53-.53a.404.404 0 0 1 .516-.043c.185.129.357.273.516.432Zm3.54-3.54a3.823 3.823 0 0 0-5.4 0l-1.688 1.688-.009.009a3.816 3.816 0 0 0 .525 5.823c.16.112.378.095.517-.044l.529-.529a1 1 0 0 0 .294-.748.403.403 0 0 0-.175-.317 1.808 1.808 0 0 1-.26-2.773l1.688-1.688a1.81 1.81 0 0 1 2.571.012c.697.711.675 1.858-.029 2.562l-.329.329a.404.404 0 0 0-.095.417c.147.432.227.879.244 1.324.012.35.438.514.685.267l.932-.932a3.822 3.822 0 0 0 0-5.4Z" fill="#fff" fill-rule="evenodd" data-name="Icon awesome-link"/></svg>