<svg xmlns="http://www.w3.org/2000/svg" width="28.901" height="28.903"><path d="M20.238 28.903c-2.404-.015-4.366-2.025-4.372-4.478v-4.368c0-2.461 1.961-4.463 4.372-4.463h4.278c2.403.007 4.37 2.009 4.385 4.463v4.368c-.015 2.453-1.982 4.463-4.385 4.478h-4.278Zm-2.026-8.846v4.368a2.068 2.068 0 0 0 .59 1.466c.38.387.884.6 1.421.6H24.531c.537 0 1.042-.213 1.421-.6.384-.393.593-.913.59-1.466v-4.368c0-.551-.212-1.07-.594-1.462a1.994 1.994 0 0 0-1.432-.605h-4.278c-1.117 0-2.026.927-2.026 2.067Zm-13.827 8.83c-2.4-.05-4.336-2.026-4.385-4.476v-4.354a4.51 4.51 0 0 1 1.286-3.16 4.323 4.323 0 0 1 3.099-1.303h1.758a1.17 1.17 0 0 1 1.125.559c.24.39.24.887 0 1.277a1.17 1.17 0 0 1-1.125.56H4.385c-1.12 0-2.03.923-2.039 2.067v4.313c.03 1.135.927 2.045 2.039 2.067h4.306a1.997 1.997 0 0 0 1.44-.6c.383-.388.598-.917.598-1.467v-6.476a1.214 1.214 0 0 1 .528-1.236 1.16 1.16 0 0 1 1.322.039c.391.287.572.788.457 1.266v6.448c0 2.472-1.963 4.477-4.385 4.477H4.385ZM22.8 13.35a1.198 1.198 0 0 1-1.056-1.199c0-.615.456-1.132 1.056-1.198h1.716a2.013 2.013 0 0 0 1.442-.623c.38-.397.59-.93.583-1.485V4.477c-.015-1.135-.913-2.052-2.025-2.068h-4.278c-1.118 0-2.026.926-2.026 2.068v6.53a1.204 1.204 0 0 1-1.206 1.177 1.157 1.157 0 0 1-.823-.372 1.207 1.207 0 0 1-.317-.86V4.477a4.513 4.513 0 0 1 1.275-3.165A4.33 4.33 0 0 1 20.238 0h4.278c2.396.057 4.322 2.032 4.372 4.477V8.83a4.512 4.512 0 0 1-1.242 3.172 4.335 4.335 0 0 1-3.076 1.347H22.8Zm-14.127-.04H4.385C1.982 13.3.015 11.296 0 8.843V4.477C.015 2.023 1.982.015 4.385 0h4.278c2.411.007 4.378 2.015 4.386 4.477v4.367a4.482 4.482 0 0 1-1.285 3.16 4.303 4.303 0 0 1-3.09 1.304ZM2.927 3a2.101 2.101 0 0 0-.607 1.476v4.367a2.096 2.096 0 0 0 .593 1.503c.375.385.896.605 1.428.605H8.663a2.005 2.005 0 0 0 1.443-.623c.383-.4.59-.927.583-1.485V4.477c-.008-1.132-.917-2.06-2.026-2.068H4.345c-.532 0-1.036.21-1.418.592Z" fill="#fff" fill-rule="evenodd" data-name="Category"/></svg>