<svg xmlns="http://www.w3.org/2000/svg" width="24.833" height="27.592"><path d="M13.805 27.592a1.006 1.006 0 0 1-.89-1.004c0-.516.384-.949.89-1.006h3.928c3.388 0 5.094-1.742 5.094-5.177V7.188c0-3.436-1.706-5.178-5.094-5.178H7.09c-3.389 0-5.106 1.742-5.106 5.178v13.217c0 3.435 1.717 5.177 5.106 5.177.505.057.887.49.887 1.006 0 .515-.382.948-.887 1.004C2.655 27.592 0 24.9 0 20.405V7.188C0 2.68 2.655 0 7.089 0h10.644c4.433 0 7.088 2.692 7.1 7.188v13.217c0 4.495-2.643 7.187-7.088 7.187h-3.94Zm-6.369-6.956h-.01a.992.992 0 0 1-.987-.998c0-.552.441-1 .986-1h9.947c.544 0 .986.448.986 1a.993.993 0 0 1-.986.998H7.436Zm9.936-5.834H7.426a1.007 1.007 0 0 1-.889-1.006c0-.515.383-.949.888-1.004h9.947c.38-.044.751.139.955.466.202.33.202.747 0 1.076a.999.999 0 0 1-.955.468ZM7.436 8.966a1.006 1.006 0 0 1-.887-1.004c0-.517.382-.95.887-1.006h3.785c.505.057.888.489.888 1.006 0 .515-.383.947-.888 1.004H7.436Z" fill="#fff" fill-rule="evenodd" data-name="Document"/></svg>