<svg xmlns="http://www.w3.org/2000/svg" width="21.357" height="21.357"><path d="m21.096 19.87-3.67-3.59-.086-.13a.86.86 0 0 0-1.214 0c-3.12 2.862-7.927 3.017-11.233.363C1.587 13.86.807 9.22 3.071 5.671 5.335 2.12 9.94.766 13.832 2.5c3.892 1.736 5.864 6.025 4.607 10.023a.832.832 0 0 0 .194.823c.21.222.526.316.827.248a.857.857 0 0 0 .633-.576c1.502-4.744-.767-9.85-5.34-12.014C10.183-1.16 4.679.268 1.804 4.363-1.07 8.458-.453 13.99 3.257 17.384c3.71 3.393 9.398 3.627 13.386.55l3.25 3.178a.874.874 0 0 0 1.214 0 .837.837 0 0 0 0-1.196l-.01-.047Z" fill="#fafbfb" fill-rule="evenodd" data-name="Search"/></svg>