<svg xmlns="http://www.w3.org/2000/svg" width="22" height="22" viewBox="918.5 538.5 22 22"><path d="m919.033 544.86 10.01 4.541a1.1 1.1 0 0 0 .914 0l10.01-4.54c.71-.323.71-1.398 0-1.72l-10.01-4.541a1.1 1.1 0 0 0-.914 0l-10.01 4.54c-.711.323-.711 1.398 0 1.72Zm20.934 3.794-2.496-1.132-6.946 3.149a2.466 2.466 0 0 1-2.05 0l-6.945-3.149-2.497 1.132c-.711.322-.711 1.396 0 1.719l10.01 4.537c.291.132.622.132.914 0l10.01-4.537c.71-.323.71-1.397 0-1.72Zm0 5.491-2.487-1.127-6.955 3.153a2.466 2.466 0 0 1-2.05 0l-6.955-3.153-2.487 1.127c-.711.322-.711 1.397 0 1.719l10.01 4.537c.291.132.622.132.914 0l10.01-4.537c.71-.322.71-1.397 0-1.719Z" fill="#fff" fill-rule="evenodd" data-name="Icon awesome-layer-group"/></svg>