<svg xmlns="http://www.w3.org/2000/svg" width="27.595" height="27.592"><path d="M14.217 27.592c-.561 0-1.018-.45-1.024-1.01a1.035 1.035 0 0 1 1.024-1.021h4.073c4.035 0 6.266-2.214 6.302-6.253v-8.93c0-.558.454-1.01 1.014-1.01.553.007 1 .457 1 1.01v8.93c0 5.11-3.196 8.284-8.316 8.284h-4.073ZM0 19.308v-9.94C0 4.246 3.182 1.07 8.303 1.07h8.975c.56.008 1.012.463 1.012 1.022a1.01 1.01 0 0 1-1.025 1.01H8.303c-4.035 0-6.267 2.227-6.267 6.266v9.94c0 4.039 2.232 6.253 6.267 6.253.564.006 1.018.46 1.024 1.022a1.022 1.022 0 0 1-1.024 1.01C3.183 27.592 0 24.416 0 19.307Zm6.413-.84a1.022 1.022 0 0 1-.182-1.424l3.987-5.182a1.024 1.024 0 0 1 1.44-.183l3.741 2.933 3.293-4.198a1.013 1.013 0 0 1 1.314-.068c.396.303.51.849.27 1.285l-3.9 5.025c-.172.21-.416.349-.684.388a1.024 1.024 0 0 1-.744-.218l-3.743-2.932-3.365 4.367a1.006 1.006 0 0 1-.816.412c-.22 0-.434-.072-.61-.205ZM20.423 3.59A3.567 3.567 0 0 1 22.627.276 3.58 3.58 0 0 1 24.007 0c.955 0 1.854.37 2.531 1.043a3.558 3.558 0 0 1 .782 3.9 3.574 3.574 0 0 1-3.312 2.21 3.586 3.586 0 0 1-3.585-3.563Zm2.036 0a1.548 1.548 0 0 0 3.097 0 1.549 1.549 0 0 0-3.097 0Z" fill="#fff" fill-rule="evenodd" data-name="Activity"/></svg>