<svg xmlns="http://www.w3.org/2000/svg" width="25.32" height="10.379" viewBox="2.516 0 25.32 10.379"><path d="M8.608 10.38a.385.385 0 0 1-.373-.372V8.289c-.015-1.71 1.387-3.108 3.132-3.125h7.62c.835 0 1.636.328 2.22.914a3.13 3.13 0 0 1 .912 2.211v1.719a.387.387 0 0 1-.377.371H8.608Zm17.128-2.43V5.39c0-1.835-1.523-3.33-3.394-3.33h-2.198c-.58 0-1.05-.46-1.05-1.027 0-.57.47-1.032 1.05-1.032h2.198c3.03 0 5.494 2.416 5.494 5.389V7.95c0 .568-.47 1.03-1.05 1.03-.579 0-1.05-.462-1.05-1.03Zm-23.22 0V5.383c0-2.965 2.46-5.38 5.483-5.383L10.247 0c.58 0 1.05.462 1.05 1.03 0 .57-.47 1.03-1.05 1.03L8 2.06c-1.866.004-3.383 1.493-3.383 3.323v2.565c0 .569-.472 1.03-1.05 1.03-.58 0-1.051-.461-1.051-1.03Z" fill="#fff" fill-rule="evenodd" data-name="Combined Shape"/></svg>