<svg xmlns="http://www.w3.org/2000/svg" width="30.352" height="12.36" viewBox="0 12.474 30.352 12.36"><path d="M29.302 12.474H1.052c-.58 0-1.052.46-1.052 1.03a1.04 1.04 0 0 0 1.051 1.029h1.464v4.916c0 2.965 2.461 5.38 5.484 5.383l2.247.001c.581 0 1.05-.461 1.052-1.03 0-.569-.47-1.03-1.05-1.03l-2.246-.002c-1.867-.002-3.386-1.492-3.386-3.322v-4.916h3.619V15.9c-.014 1.712 1.387 3.11 3.13 3.127h7.621c1.746-.016 3.146-1.415 3.132-3.127v-1.367h3.619v4.91c0 1.838-1.523 3.33-3.395 3.33h-2.198a1.04 1.04 0 0 0-1.051 1.03c0 .569.47 1.03 1.05 1.03h2.199c3.03 0 5.495-2.416 5.495-5.39v-4.91h1.465c.58 0 1.05-.46 1.05-1.029 0-.57-.47-1.03-1.05-1.03" fill="#fff" fill-rule="evenodd" data-name="Fill 7"/></svg>