<svg xmlns="http://www.w3.org/2000/svg" width="24.833" height="30.352" viewBox="1981.083 110.324 24.833 30.352"><g data-name="Iconly/Bulk/Scan"><g data-name="Scan"><path d="M1995.538 118.932a.385.385 0 0 1 .37-.373h1.72c1.71-.015 3.107 1.387 3.125 3.132v7.62c0 .835-.328 1.636-.914 2.22a3.13 3.13 0 0 1-2.212.912h-1.718a.387.387 0 0 1-.371-.377v-13.134Zm2.428 17.128h2.562c1.835 0 3.329-1.523 3.329-3.394v-2.198c0-.58.46-1.05 1.028-1.05.57 0 1.032.47 1.032 1.05v2.198c0 3.03-2.417 5.494-5.39 5.494h-2.56a1.04 1.04 0 0 1-1.031-1.05c0-.579.463-1.05 1.03-1.05Zm.002-23.22h2.565c2.965 0 5.38 2.46 5.382 5.483l.002 2.248a1.04 1.04 0 0 1-1.03 1.05c-.57 0-1.03-.47-1.03-1.05l-.001-2.246c-.004-1.867-1.493-3.384-3.323-3.384h-2.565c-.57 0-1.031-.472-1.031-1.05 0-.58.462-1.05 1.03-1.05Z" fill="#fff" fill-rule="evenodd" data-name="Combined Shape"/><path d="M1993.443 139.626v-28.25c0-.58-.461-1.052-1.03-1.052a1.04 1.04 0 0 0-1.029 1.051v1.464h-4.916c-2.966 0-5.38 2.461-5.383 5.484l-.002 2.248c0 .58.462 1.05 1.031 1.05.568 0 1.03-.47 1.03-1.05l.001-2.245c.003-1.867 1.492-3.386 3.323-3.386h4.916v3.62h-1.368c-1.711-.015-3.11 1.386-3.126 3.13v7.62c.016 1.746 1.415 3.146 3.126 3.132h1.368v3.619h-4.91c-1.838 0-3.33-1.523-3.33-3.395v-2.198a1.04 1.04 0 0 0-1.03-1.051c-.57 0-1.03.47-1.03 1.051v2.198c0 3.03 2.416 5.495 5.39 5.495h4.91v1.465c0 .58.46 1.05 1.028 1.05.57 0 1.031-.47 1.031-1.05" fill="#fff" fill-rule="evenodd" data-name="Fill 7"/></g></g></svg>